<svg xmlns="http://www.w3.org/2000/svg" xmlns:svg="http://www.w3.org/2000/svg" xmlns:xlink="http://www.w3.org/1999/xlink" id="svg2" width="110mm" height="110mm" version="1.1" viewBox="0 0 389.764 389.764"><defs id="defs4"><marker id="marker4505" orient="auto" overflow="visible" refX="0" refY="0"><path id="path4507" fill="#000" fill-opacity="1" fill-rule="evenodd" stroke="#000" stroke-opacity="1" stroke-width="1pt" d="M 0.0,0.0 L 5.0,-5.0 L -12.5,0.0 L 5.0,5.0 L 0.0,0.0 z" transform="scale(0.8) translate(12.5,0)"/></marker><marker id="marker4483" orient="auto" overflow="visible" refX="0" refY="0"><path id="path4485" fill="#000" fill-opacity="1" fill-rule="evenodd" stroke="#000" stroke-opacity="1" stroke-width="1pt" d="M 0.0,0.0 L 5.0,-5.0 L -12.5,0.0 L 5.0,5.0 L 0.0,0.0 z" transform="scale(0.8) translate(12.5,0)"/></marker><marker id="Arrow1Lstart" orient="auto" overflow="visible" refX="0" refY="0"><path id="path4213" fill="#ecf0f1" fill-opacity="1" fill-rule="evenodd" stroke="none" stroke-opacity="1" stroke-width="1pt" d="M 0.0,0.0 L 5.0,-5.0 L -12.5,0.0 L 5.0,5.0 L 0.0,0.0 z" transform="scale(0.8) translate(12.5,0)"/></marker><pattern id="pattern4486" patternTransform="matrix(0.4295427,0,0,0.4295427,-4.3554687e-6,-4.3457032e-7)" xlink:href="#pattern4481"/><pattern id="pattern4481" patternTransform="matrix(0.4295427,0,0,0.4295427,-130.66779,-129.37468)" xlink:href="#pattern4467"/><linearGradient id="linearGradient3588"><stop id="stop3590" offset="0" stop-color="#bfe699" stop-opacity="1"/><stop id="stop3592" offset="1" stop-color="#313e24" stop-opacity="1"/></linearGradient><linearGradient id="linearGradient3570"><stop id="stop3572" offset="0" stop-color="#e5ffcb" stop-opacity="1"/><stop id="stop3574" offset="1" stop-color="#bfff80" stop-opacity="1"/></linearGradient><linearGradient id="linearGradient3303"><stop id="stop3305" offset="0" stop-color="#bfff80" stop-opacity="1"/><stop id="stop3307" offset="1" stop-color="#6a8b4a" stop-opacity="1"/></linearGradient><linearGradient id="linearGradient3431"><stop id="stop3433" offset="0" stop-color="#3d3d3d" stop-opacity="1"/><stop id="stop3435" offset="1" stop-color="#000" stop-opacity=".114"/></linearGradient><linearGradient id="linearGradient3349"><stop id="stop3351" offset="0" stop-color="#d3d3d3" stop-opacity="1"/><stop id="stop3353" offset="1" stop-color="#fff" stop-opacity="1"/></linearGradient><linearGradient id="linearGradient3312"><stop id="stop3314" offset="0" stop-color="#c7f994" stop-opacity="1"/><stop id="stop3316" offset="1" stop-color="#87cf3e" stop-opacity="1"/></linearGradient><linearGradient id="linearGradient3335" x1="61.429" x2="116.429" y1="362.143" y2="408.571" gradientUnits="userSpaceOnUse" xlink:href="#linearGradient3312"/><linearGradient id="linearGradient3374" x1="140.664" x2="67.175" y1="424.332" y2="348.571" gradientUnits="userSpaceOnUse" xlink:href="#linearGradient3349"/><linearGradient id="linearGradient3377" x1="61.429" x2="116.429" y1="362.143" y2="408.571" gradientTransform="translate(0,-9.49911)" gradientUnits="userSpaceOnUse" xlink:href="#linearGradient3312"/><linearGradient id="linearGradient3416" x1="61.429" x2="116.429" y1="362.143" y2="408.571" gradientTransform="matrix(1,0,0,-1,0,649.49911)" gradientUnits="userSpaceOnUse" xlink:href="#linearGradient3312"/><linearGradient id="linearGradient2259" x1="70.492" x2="113.642" y1="416.389" y2="375.88" gradientUnits="userSpaceOnUse" spreadMethod="pad" xlink:href="#linearGradient3431"/><linearGradient id="linearGradient3737" x1="26.795" x2="149.907" y1="216.349" y2="323.987" gradientUnits="userSpaceOnUse" xlink:href="#linearGradient3588"/><pattern id="pattern4467" width="256" height="256" patternTransform="translate(-297.8418,85.357452)" patternUnits="userSpaceOnUse"><image id="image4464" width="256" height="256" x="0" y="0" xlink:href="file:///home/rain/minidark/metal5.jpg"/></pattern><pattern id="pattern4483" width="109.963" height="109.963" patternTransform="translate(-130.66779,-129.37468)" patternUnits="userSpaceOnUse"><rect id="rect4470" width="109.963" height="109.963" x="0" y="0" fill="url(#pattern4486)" stroke="none"/></pattern><linearGradient id="linearGradient3000" x1="148.595" x2="100.47" y1="426.114" y2="379.96" gradientTransform="matrix(1.0484996,0,0,1.0484996,59.525242,85.095989)" gradientUnits="userSpaceOnUse" xlink:href="#linearGradient3349"/><linearGradient id="linearGradient3006" x1="61.429" x2="116.429" y1="362.143" y2="408.571" gradientTransform="matrix(1.0484996,0,0,1.0484996,59.525242,75.136176)" gradientUnits="userSpaceOnUse" xlink:href="#linearGradient3312"/><linearGradient id="linearGradient4003" x1="61.429" x2="116.429" y1="362.143" y2="408.571" gradientTransform="matrix(1.0484996,0,0,1.0484996,210.01137,213.49817)" gradientUnits="userSpaceOnUse" xlink:href="#linearGradient3312"/><linearGradient id="linearGradient4007" x1="148.595" x2="100.47" y1="426.114" y2="379.96" gradientTransform="matrix(1.0484996,0,0,1.0484996,210.01137,223.45798)" gradientUnits="userSpaceOnUse" xlink:href="#linearGradient3349"/></defs><metadata id="metadata7"/><g id="layer1" opacity=".96" transform="translate(-39.167521,88.250195)"><path id="path4134" fill="#000"/><g id="layer3" display="inline" transform="translate(-141.01382,-425.49872)"><g id="g4573" transform="translate(131.00657,-3.8976736)"><g id="g4627" opacity=".99"><g id="g4740" transform="translate(-34.291185,268.4348)"><g id="g4109" transform="translate(380.29592,62.962549)"><g id="g4077" fill="#fff" fill-opacity="1" transform="matrix(0.77230011,0,0,0.77230011,-239.76484,-6.9998595)"><g id="layer1-5" transform="matrix(1.2948334,0,0,1.2948334,-524.75052,-387.7468)"><g id="g6445" transform="translate(105.76257,-1.6247732)"><g id="layer1-2" transform="matrix(0.73714688,0,0,0.72683577,246.12512,-72.471736)"><g id="g6354" transform="matrix(11.396466,0,0,11.396466,-4205.4876,-10080.568)"><path id="path4207" fill="#ecf0f1" fill-opacity="1" fill-rule="nonzero" stroke="none" stroke-dasharray="none" stroke-dashoffset="0" stroke-linecap="round" stroke-linejoin="miter" stroke-miterlimit="4" stroke-opacity="1" stroke-width="2.517" d="m 397.74961,946.59681 c 2.64265,1.89784 4.36565,5.02643 4.36565,8.58286 0,5.82604 -4.62384,10.50586 -10.33984,10.50586 -5.716,0 -10.33984,-4.67982 -10.33984,-10.50586 0,-3.55081 1.71756,-6.67512 4.35312,-8.57385 1.23234,-1.03799 1.22897,-3.66779 -0.0234,-2.93448 -4.07132,2.19091 -6.84733,6.53319 -6.84733,11.50835 0,7.16752 5.76161,13.02343 12.85742,13.02343 7.09581,0 12.85742,-5.85591 12.85742,-13.02343 0,-4.99266 -2.79556,-9.34797 -6.89032,-11.53138 -1.20016,-0.66017 -1.20931,2.13783 0.007,2.9485 z" baseline-shift="baseline" clip-rule="nonzero" color="#000" color-interpolation="sRGB" color-interpolation-filters="linearRGB" color-rendering="auto" direction="ltr" display="inline" enable-background="accumulate" font-family="sans-serif" font-size="medium" font-stretch="normal" font-style="normal" font-variant="normal" font-weight="normal" image-rendering="auto" letter-spacing="normal" opacity="1" overflow="visible" shape-rendering="auto" text-anchor="start" text-decoration="none" text-rendering="auto" visibility="visible" word-spacing="normal" writing-mode="lr-tb" style="line-height:normal;text-indent:0;text-align:start;text-decoration-line:none;text-decoration-style:solid;text-decoration-color:#000;text-transform:none;block-progression:tb;white-space:normal;isolation:auto;mix-blend-mode:normal;solid-color:#000;solid-opacity:1"/><path id="path4692" fill="#ecf0f1" fill-rule="evenodd" stroke="none" stroke-dasharray="none" stroke-linecap="butt" stroke-linejoin="miter" stroke-miterlimit="4" stroke-opacity="1" stroke-width=".852" marker-start="url(#Arrow1Lstart)" d="m 391.42407,939.6732 c -5.21022,4.64457 -6.69206,4.63011 -6.69206,4.63011"/></g></g></g></g></g></g></g></g></g></g></g></svg>