<svg xmlns="http://www.w3.org/2000/svg" xmlns:svg="http://www.w3.org/2000/svg" xmlns:xlink="http://www.w3.org/1999/xlink" id="svg2" width="110mm" height="110mm" version="1.1" viewBox="0 0 389.764 389.764"><defs id="defs4"><pattern id="pattern4486" patternTransform="matrix(0.4295427,0,0,0.4295427,-4.3554687e-6,-4.3457032e-7)" xlink:href="#pattern4481"/><pattern id="pattern4481" patternTransform="matrix(0.4295427,0,0,0.4295427,-130.66779,-129.37468)" xlink:href="#pattern4467"/><linearGradient id="linearGradient3588"><stop id="stop3590" offset="0" stop-color="#bfe699" stop-opacity="1"/><stop id="stop3592" offset="1" stop-color="#313e24" stop-opacity="1"/></linearGradient><linearGradient id="linearGradient3570"><stop id="stop3572" offset="0" stop-color="#e5ffcb" stop-opacity="1"/><stop id="stop3574" offset="1" stop-color="#bfff80" stop-opacity="1"/></linearGradient><linearGradient id="linearGradient3303"><stop id="stop3305" offset="0" stop-color="#bfff80" stop-opacity="1"/><stop id="stop3307" offset="1" stop-color="#6a8b4a" stop-opacity="1"/></linearGradient><linearGradient id="linearGradient3431"><stop id="stop3433" offset="0" stop-color="#3d3d3d" stop-opacity="1"/><stop id="stop3435" offset="1" stop-color="#000" stop-opacity=".114"/></linearGradient><linearGradient id="linearGradient3349"><stop id="stop3351" offset="0" stop-color="#d3d3d3" stop-opacity="1"/><stop id="stop3353" offset="1" stop-color="#fff" stop-opacity="1"/></linearGradient><linearGradient id="linearGradient3312"><stop id="stop3314" offset="0" stop-color="#c7f994" stop-opacity="1"/><stop id="stop3316" offset="1" stop-color="#87cf3e" stop-opacity="1"/></linearGradient><linearGradient id="linearGradient3335" x1="61.429" x2="116.429" y1="362.143" y2="408.571" gradientUnits="userSpaceOnUse" xlink:href="#linearGradient3312"/><linearGradient id="linearGradient3374" x1="140.664" x2="67.175" y1="424.332" y2="348.571" gradientUnits="userSpaceOnUse" xlink:href="#linearGradient3349"/><linearGradient id="linearGradient3377" x1="61.429" x2="116.429" y1="362.143" y2="408.571" gradientTransform="translate(0,-9.49911)" gradientUnits="userSpaceOnUse" xlink:href="#linearGradient3312"/><linearGradient id="linearGradient3416" x1="61.429" x2="116.429" y1="362.143" y2="408.571" gradientTransform="matrix(1,0,0,-1,0,649.49911)" gradientUnits="userSpaceOnUse" xlink:href="#linearGradient3312"/><linearGradient id="linearGradient2259" x1="70.492" x2="113.642" y1="416.389" y2="375.88" gradientUnits="userSpaceOnUse" spreadMethod="pad" xlink:href="#linearGradient3431"/><linearGradient id="linearGradient3737" x1="26.795" x2="149.907" y1="216.349" y2="323.987" gradientUnits="userSpaceOnUse" xlink:href="#linearGradient3588"/><pattern id="pattern4467" width="256" height="256" patternTransform="translate(-297.8418,85.357452)" patternUnits="userSpaceOnUse"><image id="image4464" width="256" height="256" x="0" y="0" xlink:href="file:///home/rain/minidark/metal5.jpg"/></pattern><pattern id="pattern4483" width="109.963" height="109.963" patternTransform="translate(-130.66779,-129.37468)" patternUnits="userSpaceOnUse"><rect id="rect4470" width="109.963" height="109.963" x="0" y="0" fill="url(#pattern4486)" stroke="none"/></pattern><linearGradient id="linearGradient3000" x1="148.595" x2="100.47" y1="426.114" y2="379.96" gradientTransform="matrix(1.0484996,0,0,1.0484996,59.525242,85.095989)" gradientUnits="userSpaceOnUse" xlink:href="#linearGradient3349"/><linearGradient id="linearGradient3006" x1="61.429" x2="116.429" y1="362.143" y2="408.571" gradientTransform="matrix(1.0484996,0,0,1.0484996,59.525242,75.136176)" gradientUnits="userSpaceOnUse" xlink:href="#linearGradient3312"/><linearGradient id="linearGradient4003" x1="61.429" x2="116.429" y1="362.143" y2="408.571" gradientTransform="matrix(1.0484996,0,0,1.0484996,210.01137,213.49817)" gradientUnits="userSpaceOnUse" xlink:href="#linearGradient3312"/><linearGradient id="linearGradient4007" x1="148.595" x2="100.47" y1="426.114" y2="379.96" gradientTransform="matrix(1.0484996,0,0,1.0484996,210.01137,223.45798)" gradientUnits="userSpaceOnUse" xlink:href="#linearGradient3349"/></defs><metadata id="metadata7"/><g id="layer1" opacity=".96" transform="translate(-39.167521,88.250195)"><path id="path4134" fill="#000"/><g id="layer3" display="inline" transform="translate(-141.01382,-425.49872)"><g id="g4573" transform="translate(131.00657,-3.8976736)"><g id="g4627" opacity=".99"><g id="g4740" transform="translate(-34.291185,268.4348)"><g id="g4109" transform="translate(380.29592,62.962549)"><g id="g4077" fill="#fff" fill-opacity="1" transform="matrix(0.77230011,0,0,0.77230011,-239.76484,-6.9998595)"><g id="layer1-5" transform="matrix(1.2948334,0,0,1.2948334,-524.75052,-387.7468)"><g id="g6445" transform="translate(105.76257,-1.6247732)"><path id="path4191" fill="#ecf0f1" fill-opacity="1" stroke="none" stroke-dasharray="none" stroke-linecap="round" stroke-linejoin="miter" stroke-miterlimit="4" stroke-opacity="1" stroke-width="10.3" d="m 437.31964,415.27133 a 97.441353,97.441353 0 0 0 -97.4415,97.44149 97.441353,97.441353 0 0 0 97.4415,97.4404 97.441353,97.441353 0 0 0 97.4404,-97.4404 97.441353,97.441353 0 0 0 -97.4404,-97.44149 z m -1.84223,44.4482 c 4.8183,0 10.10053,0.4171 15.84543,1.25139 5.7449,0.79802 11.85982,1.97644 18.34601,3.53621 l 0,17.30262 -7.85246,0 c -0.78761,-5.73123 -3.24337,-9.86633 -7.36673,-12.40549 -4.07702,-2.57543 -10.30883,-3.86261 -18.69454,-3.86261 -7.32011,0 -12.90291,1.17843 -16.74829,3.53621 -3.79904,2.32152 -5.6982,5.71323 -5.6982,10.17489 0,3.88128 1.43605,6.92878 4.30851,9.14147 2.87245,2.21269 8.9651,4.40694 18.2774,6.58336 l 12.85692,2.99294 c 9.40496,2.21269 16.09876,5.04156 20.08312,8.48756 4.0307,3.40972 6.04674,7.99781 6.04674,13.76531 0,7.87138 -3.22054,13.80268 -9.66039,17.79278 -6.43986,3.9901 -16.03025,5.98477 -28.77095,5.98477 -5.69858,0 -11.51293,-0.45298 -17.44315,-1.35982 -5.88389,-0.90684 -11.88304,-2.28484 -17.99857,-4.13479 l 0,-18.4998 7.99186,0.0542 c 0.23165,6.16651 2.50151,10.73665 6.81018,13.71109 4.35501,2.93816 10.95752,4.40698 19.80652,4.40698 8.24671,0 14.52417,-1.26924 18.83284,-3.80839 4.355,-2.57543 6.53246,-6.31138 6.53246,-11.20832 0,-3.91755 -1.32027,-6.92806 -3.96107,-9.03192 -2.59448,-2.10387 -8.10825,-4.15348 -16.54029,-6.14853 l -13.69007,-3.20981 c -9.91459,-2.35778 -16.91006,-5.29652 -20.98709,-8.81506 -4.0307,-3.51855 -6.04674,-8.3432 -6.04674,-14.47344 0,-6.89199 3.12815,-12.24251 9.38267,-16.05123 6.25453,-3.80873 15.0334,-5.71259 26.33788,-5.71259 z m -54.13073,72.50992 5.8343,0 0,21.70186 106.11052,0 0,5.8343 -111.94482,0 0,-27.53616 z"/></g></g></g></g></g></g></g></g></g></svg>