<svg xmlns="http://www.w3.org/2000/svg" xmlns:svg="http://www.w3.org/2000/svg" xmlns:xlink="http://www.w3.org/1999/xlink" id="svg2" width="110mm" height="110mm" version="1.1" viewBox="0 0 389.764 389.764"><defs id="defs4"><pattern id="pattern4486" patternTransform="matrix(0.4295427,0,0,0.4295427,-4.3554687e-6,-4.3457032e-7)" xlink:href="#pattern4481"/><pattern id="pattern4481" patternTransform="matrix(0.4295427,0,0,0.4295427,-130.66779,-129.37468)" xlink:href="#pattern4467"/><linearGradient id="linearGradient3588"><stop id="stop3590" offset="0" stop-color="#bfe699" stop-opacity="1"/><stop id="stop3592" offset="1" stop-color="#313e24" stop-opacity="1"/></linearGradient><linearGradient id="linearGradient3570"><stop id="stop3572" offset="0" stop-color="#e5ffcb" stop-opacity="1"/><stop id="stop3574" offset="1" stop-color="#bfff80" stop-opacity="1"/></linearGradient><linearGradient id="linearGradient3303"><stop id="stop3305" offset="0" stop-color="#bfff80" stop-opacity="1"/><stop id="stop3307" offset="1" stop-color="#6a8b4a" stop-opacity="1"/></linearGradient><linearGradient id="linearGradient3431"><stop id="stop3433" offset="0" stop-color="#3d3d3d" stop-opacity="1"/><stop id="stop3435" offset="1" stop-color="#000" stop-opacity=".114"/></linearGradient><linearGradient id="linearGradient3349"><stop id="stop3351" offset="0" stop-color="#d3d3d3" stop-opacity="1"/><stop id="stop3353" offset="1" stop-color="#fff" stop-opacity="1"/></linearGradient><linearGradient id="linearGradient3312"><stop id="stop3314" offset="0" stop-color="#c7f994" stop-opacity="1"/><stop id="stop3316" offset="1" stop-color="#87cf3e" stop-opacity="1"/></linearGradient><linearGradient id="linearGradient3335" x1="61.429" x2="116.429" y1="362.143" y2="408.571" gradientUnits="userSpaceOnUse" xlink:href="#linearGradient3312"/><linearGradient id="linearGradient3374" x1="140.664" x2="67.175" y1="424.332" y2="348.571" gradientUnits="userSpaceOnUse" xlink:href="#linearGradient3349"/><linearGradient id="linearGradient3377" x1="61.429" x2="116.429" y1="362.143" y2="408.571" gradientTransform="translate(0,-9.49911)" gradientUnits="userSpaceOnUse" xlink:href="#linearGradient3312"/><linearGradient id="linearGradient3416" x1="61.429" x2="116.429" y1="362.143" y2="408.571" gradientTransform="matrix(1,0,0,-1,0,649.49911)" gradientUnits="userSpaceOnUse" xlink:href="#linearGradient3312"/><linearGradient id="linearGradient2259" x1="70.492" x2="113.642" y1="416.389" y2="375.88" gradientUnits="userSpaceOnUse" spreadMethod="pad" xlink:href="#linearGradient3431"/><linearGradient id="linearGradient3737" x1="26.795" x2="149.907" y1="216.349" y2="323.987" gradientUnits="userSpaceOnUse" xlink:href="#linearGradient3588"/><pattern id="pattern4467" width="256" height="256" patternTransform="translate(-297.8418,85.357452)" patternUnits="userSpaceOnUse"><image id="image4464" width="256" height="256" x="0" y="0" xlink:href="file:///home/rain/minidark/metal5.jpg"/></pattern><pattern id="pattern4483" width="109.963" height="109.963" patternTransform="translate(-130.66779,-129.37468)" patternUnits="userSpaceOnUse"><rect id="rect4470" width="109.963" height="109.963" x="0" y="0" fill="url(#pattern4486)" stroke="none"/></pattern><linearGradient id="linearGradient3000" x1="148.595" x2="100.47" y1="426.114" y2="379.96" gradientTransform="matrix(1.0484996,0,0,1.0484996,59.525242,85.095989)" gradientUnits="userSpaceOnUse" xlink:href="#linearGradient3349"/><linearGradient id="linearGradient3006" x1="61.429" x2="116.429" y1="362.143" y2="408.571" gradientTransform="matrix(1.0484996,0,0,1.0484996,59.525242,75.136176)" gradientUnits="userSpaceOnUse" xlink:href="#linearGradient3312"/><linearGradient id="linearGradient4003" x1="61.429" x2="116.429" y1="362.143" y2="408.571" gradientTransform="matrix(1.0484996,0,0,1.0484996,210.01137,213.49817)" gradientUnits="userSpaceOnUse" xlink:href="#linearGradient3312"/><linearGradient id="linearGradient4007" x1="148.595" x2="100.47" y1="426.114" y2="379.96" gradientTransform="matrix(1.0484996,0,0,1.0484996,210.01137,223.45798)" gradientUnits="userSpaceOnUse" xlink:href="#linearGradient3349"/></defs><metadata id="metadata7"/><g id="layer1" opacity=".96" transform="translate(-39.167521,88.250195)"><path id="path4134" fill="#000"/><g id="layer3" display="inline" transform="translate(-141.01382,-425.49872)"><g id="g4573" transform="translate(131.00657,-3.8976736)"><g id="g4627" opacity=".99"><g id="g4740" transform="translate(-34.291185,268.4348)"><g id="g4109" transform="translate(380.29592,62.962549)"><g id="g4077" fill="#fff" fill-opacity="1" transform="matrix(0.77230011,0,0,0.77230011,-239.76484,-6.9998595)"><g id="layer1-5" transform="matrix(1.2948334,0,0,1.2948334,-524.75052,-387.7468)"><g id="g6445" transform="translate(105.76257,-1.6247732)"><path id="path5621" fill="#ecf0f1" d="m 429.18027,595.31322 c -0.12532,-25.74571 -0.13414,-51.49176 -0.14689,-77.23772 35.10079,0.11607 70.3002,-0.0406 105.33943,0.24567 0.33658,30.47967 -0.015,61.24107 -0.007,91.83205 -35.71181,-5.01847 -72.30274,-9.94601 -105.18531,-14.84 z m -10.37981,-1.23774 c -26.19092,-3.60411 -52.3806,-7.25731 -78.58302,-10.75314 l 0,-66.29372 c 26.42308,0.1027 52.84671,0.25223 79.26848,0.5386 -0.0656,25.48605 0.19632,51.20733 -0.0733,76.54676 z M 340.11954,442.90483 c 26.4607,-3.65556 52.93579,-7.27423 79.41536,-10.77521 -0.0819,25.47736 0.1632,51.19446 -0.12241,76.5224 -26.38722,0.18599 -52.77485,0.35649 -79.16259,0.44464 -0.10639,-22.14479 -0.13352,-46.18199 -0.13036,-66.19183 z m 89.07705,65.53923 c -0.15222,-25.84248 -0.0217,-51.80209 -0.0653,-77.68957 35.04501,-5.36108 70.19097,-10.25525 105.26697,-15.48316 -0.0817,30.77064 0.16321,61.78034 -0.12241,92.40165 -35.02521,0.35758 -70.05262,0.61512 -105.07929,0.77108 z"/></g></g></g></g></g></g></g></g></g></svg>