<svg xmlns="http://www.w3.org/2000/svg" xmlns:svg="http://www.w3.org/2000/svg" xmlns:xlink="http://www.w3.org/1999/xlink" id="svg2" width="110mm" height="110mm" version="1.1" viewBox="0 0 389.764 389.764"><defs id="defs4"><pattern id="pattern4486" patternTransform="matrix(0.4295427,0,0,0.4295427,-4.3554687e-6,-4.3457032e-7)" xlink:href="#pattern4481"/><pattern id="pattern4481" patternTransform="matrix(0.4295427,0,0,0.4295427,-130.66779,-129.37468)" xlink:href="#pattern4467"/><linearGradient id="linearGradient3588"><stop id="stop3590" offset="0" stop-color="#bfe699" stop-opacity="1"/><stop id="stop3592" offset="1" stop-color="#313e24" stop-opacity="1"/></linearGradient><linearGradient id="linearGradient3570"><stop id="stop3572" offset="0" stop-color="#e5ffcb" stop-opacity="1"/><stop id="stop3574" offset="1" stop-color="#bfff80" stop-opacity="1"/></linearGradient><linearGradient id="linearGradient3303"><stop id="stop3305" offset="0" stop-color="#bfff80" stop-opacity="1"/><stop id="stop3307" offset="1" stop-color="#6a8b4a" stop-opacity="1"/></linearGradient><linearGradient id="linearGradient3431"><stop id="stop3433" offset="0" stop-color="#3d3d3d" stop-opacity="1"/><stop id="stop3435" offset="1" stop-color="#000" stop-opacity=".114"/></linearGradient><linearGradient id="linearGradient3349"><stop id="stop3351" offset="0" stop-color="#d3d3d3" stop-opacity="1"/><stop id="stop3353" offset="1" stop-color="#fff" stop-opacity="1"/></linearGradient><linearGradient id="linearGradient3312"><stop id="stop3314" offset="0" stop-color="#c7f994" stop-opacity="1"/><stop id="stop3316" offset="1" stop-color="#87cf3e" stop-opacity="1"/></linearGradient><linearGradient id="linearGradient3335" x1="61.429" x2="116.429" y1="362.143" y2="408.571" gradientUnits="userSpaceOnUse" xlink:href="#linearGradient3312"/><linearGradient id="linearGradient3374" x1="140.664" x2="67.175" y1="424.332" y2="348.571" gradientUnits="userSpaceOnUse" xlink:href="#linearGradient3349"/><linearGradient id="linearGradient3377" x1="61.429" x2="116.429" y1="362.143" y2="408.571" gradientTransform="translate(0,-9.49911)" gradientUnits="userSpaceOnUse" xlink:href="#linearGradient3312"/><linearGradient id="linearGradient3416" x1="61.429" x2="116.429" y1="362.143" y2="408.571" gradientTransform="matrix(1,0,0,-1,0,649.49911)" gradientUnits="userSpaceOnUse" xlink:href="#linearGradient3312"/><linearGradient id="linearGradient2259" x1="70.492" x2="113.642" y1="416.389" y2="375.88" gradientUnits="userSpaceOnUse" spreadMethod="pad" xlink:href="#linearGradient3431"/><linearGradient id="linearGradient3737" x1="26.795" x2="149.907" y1="216.349" y2="323.987" gradientUnits="userSpaceOnUse" xlink:href="#linearGradient3588"/><pattern id="pattern4467" width="256" height="256" patternTransform="translate(-297.8418,85.357452)" patternUnits="userSpaceOnUse"><image id="image4464" width="256" height="256" x="0" y="0" xlink:href="file:///home/rain/minidark/metal5.jpg"/></pattern><pattern id="pattern4483" width="109.963" height="109.963" patternTransform="translate(-130.66779,-129.37468)" patternUnits="userSpaceOnUse"><rect id="rect4470" width="109.963" height="109.963" x="0" y="0" fill="url(#pattern4486)" stroke="none"/></pattern><linearGradient id="linearGradient3000" x1="148.595" x2="100.47" y1="426.114" y2="379.96" gradientTransform="matrix(1.0484996,0,0,1.0484996,59.525242,85.095989)" gradientUnits="userSpaceOnUse" xlink:href="#linearGradient3349"/><linearGradient id="linearGradient3006" x1="61.429" x2="116.429" y1="362.143" y2="408.571" gradientTransform="matrix(1.0484996,0,0,1.0484996,59.525242,75.136176)" gradientUnits="userSpaceOnUse" xlink:href="#linearGradient3312"/><linearGradient id="linearGradient4003" x1="61.429" x2="116.429" y1="362.143" y2="408.571" gradientTransform="matrix(1.0484996,0,0,1.0484996,210.01137,213.49817)" gradientUnits="userSpaceOnUse" xlink:href="#linearGradient3312"/><linearGradient id="linearGradient4007" x1="148.595" x2="100.47" y1="426.114" y2="379.96" gradientTransform="matrix(1.0484996,0,0,1.0484996,210.01137,223.45798)" gradientUnits="userSpaceOnUse" xlink:href="#linearGradient3349"/></defs><metadata id="metadata7"/><g id="layer1" opacity=".96" transform="translate(-39.167521,88.250195)"><path id="path4134" fill="#000"/><g id="layer3" display="inline" transform="translate(-141.01382,-425.49872)"><g id="g4573" transform="translate(131.00657,-3.8976736)"><g id="g4627" opacity=".99"><g id="g4740" transform="translate(-34.291185,268.4348)"><g id="g4109" transform="translate(380.29592,62.962549)"><g id="g4077" fill="#fff" fill-opacity="1" transform="matrix(0.77230011,0,0,0.77230011,-239.76484,-6.9998595)"><g id="layer1-5" transform="matrix(1.2948334,0,0,1.2948334,-524.75052,-387.7468)"><g id="g6445" transform="translate(105.76257,-1.6247732)"><g id="layer1-2" transform="matrix(0.73714688,0,0,0.72683577,246.12512,-72.471736)"><g id="g6354" transform="matrix(11.396466,0,0,11.396466,-4205.4876,-10080.568)"><path id="rect4202" fill="#ecf0f1" fill-opacity="1" stroke="none" stroke-dasharray="none" stroke-linecap="round" stroke-linejoin="miter" stroke-miterlimit="4" stroke-opacity="1" stroke-width="10.3" d="m 381.24468,947.02736 c -1.38646,0 -2.5028,1.11615 -2.5028,2.50261 l 0,24.93814 c 0,1.38647 1.11634,2.5026 2.5028,2.5026 l 21.06209,0 c 1.38646,0 2.50264,-1.11613 2.50264,-2.5026 l 0,-24.93814 c 0,-1.38646 -1.11618,-2.50261 -2.50264,-2.50261 l -21.06209,0 z m 10.53206,0.66077 1.81033,3.17949 -1.29355,0 0,12.27731 3.29701,-3.16507 c 0.21285,-0.26918 0.36233,-0.62201 0.3702,-0.98454 0,-1.89544 6.4e-4,-2.56199 6.4e-4,-2.56199 l -1.04981,0 0,-3.18035 3.13554,0 0,3.18035 -1.05116,0 5.2e-4,2.5311 c 0,0.71195 -0.38484,1.45808 -0.8362,1.93283 0.0132,-0.0133 0.0279,-0.0264 -1.7e-4,3.5e-4 -0.0113,0.0103 -3.49692,3.35683 -3.49692,3.35683 -0.21278,0.26848 -0.36157,0.62012 -0.37052,0.98161 l 0,3.9951 c 2.3e-4,0.005 0,0.01 0,0.0139 l 0,1.80631 c 1.19852,0.24368 2.10163,1.31625 2.10163,2.60303 0,1.46678 -1.17249,2.65573 -2.61876,2.65573 -1.44584,0 -2.61807,-1.18895 -2.61807,-2.65573 0,-1.28651 0.90223,-2.35899 2.09978,-2.60269 l 0,-1.83858 c -0.008,-0.36219 -0.15699,-0.71425 -0.36951,-0.98298 0,0 -3.48581,-3.34716 -3.49709,-3.35736 -0.028,-0.0269 -0.0136,-0.0135 -1.8e-4,-5.1e-4 -0.45143,-0.47473 -0.83652,-1.22067 -0.83652,-1.93248 l 5.1e-4,-2.62638 c -0.60983,-0.21725 -1.05015,-0.80079 -1.05015,-1.49456 0,-0.87773 0.70202,-1.59001 1.56811,-1.59001 0.86571,0 1.56793,0.71234 1.56793,1.59001 0,0.69377 -0.44066,1.27731 -1.05098,1.49456 3.5e-4,0.32052 6.5e-4,1.19133 6.5e-4,2.65762 0.008,0.36245 0.15752,0.7147 0.37035,0.98401 l 3.2965,3.16438 0,-16.25163 -1.29151,0 1.8105,-3.1795 6.4e-4,-1.6e-4 z" opacity="1"/></g></g></g></g></g></g></g></g></g></g></g></svg>